<svg width="68" height="68" viewBox="0 0 68 68" fill="none" xmlns="http://www.w3.org/2000/svg">
<rect width="68" height="68" rx="34" fill="#0C34F0"/>
<path d="M28.0281 44V41.96L32.9241 36.728C33.8841 35.704 34.6361 34.88 35.1801 34.256C35.7401 33.616 36.1401 33.056 36.3801 32.576C36.6361 32.096 36.7641 31.592 36.7641 31.064C36.7641 30.2 36.5001 29.536 35.9721 29.072C35.4441 28.592 34.7641 28.352 33.9321 28.352C33.0681 28.352 32.3241 28.6 31.7001 29.096C31.0761 29.576 30.6441 30.28 30.4041 31.208L27.9081 30.488C28.1001 29.544 28.4841 28.728 29.0601 28.04C29.6361 27.336 30.3401 26.792 31.1721 26.408C32.0201 26.024 32.9321 25.832 33.9081 25.832C35.0441 25.832 36.0361 26.048 36.8841 26.48C37.7321 26.896 38.3881 27.48 38.8521 28.232C39.3321 28.984 39.5721 29.856 39.5721 30.848C39.5721 31.504 39.4441 32.144 39.1881 32.768C38.9481 33.376 38.5721 34.024 38.0601 34.712C37.5481 35.384 36.8921 36.144 36.0921 36.992L31.7721 41.6H39.9081V44H28.0281Z" fill="white"/>
</svg>
