<svg width="68" height="68" viewBox="0 0 68 68" fill="none" xmlns="http://www.w3.org/2000/svg">
<rect width="68" height="68" rx="34" fill="#0C34F0"/>
<path d="M33.6961 44.288C32.7361 44.288 31.8321 44.112 30.9841 43.76C30.1521 43.408 29.4321 42.912 28.8241 42.272C28.2321 41.632 27.8081 40.88 27.5521 40.016L29.9521 39.104C30.2721 39.952 30.7601 40.608 31.4161 41.072C32.0721 41.536 32.8321 41.768 33.6961 41.768C34.4001 41.768 35.0081 41.632 35.5201 41.36C36.0481 41.088 36.4561 40.704 36.7441 40.208C37.0481 39.712 37.2001 39.112 37.2001 38.408C37.2001 37.72 37.0481 37.128 36.7441 36.632C36.4561 36.136 36.0481 35.76 35.5201 35.504C35.0081 35.248 34.4001 35.12 33.6961 35.12C33.4081 35.12 33.1121 35.144 32.8081 35.192C32.5201 35.24 32.2641 35.304 32.0401 35.384L31.4161 34.064L36.1201 28.52H28.5121V26.12H39.2881V28.4L34.6801 33.92L34.6081 33.008C35.6801 33.024 36.6241 33.264 37.4401 33.728C38.2561 34.176 38.8881 34.8 39.3361 35.6C39.8001 36.384 40.0321 37.296 40.0321 38.336C40.0321 39.456 39.7601 40.472 39.2161 41.384C38.6721 42.28 37.9201 42.992 36.9601 43.52C36.0161 44.032 34.9281 44.288 33.6961 44.288Z" fill="white"/>
</svg>
