<svg width="32" height="33" viewBox="0 0 32 33" fill="none" xmlns="http://www.w3.org/2000/svg">
<path d="M15.9993 3.27441C8.63935 3.27441 2.66602 9.24775 2.66602 16.6077C2.66602 23.9677 8.63935 29.9411 15.9993 29.9411C23.3593 29.9411 29.3327 23.9677 29.3327 16.6077C29.3327 9.24775 23.3593 3.27441 15.9993 3.27441ZM15.9993 27.2744C10.1193 27.2744 5.33268 22.4877 5.33268 16.6077C5.33268 10.7277 10.1193 5.94108 15.9993 5.94108C21.8793 5.94108 26.666 10.7277 26.666 16.6077C26.666 22.4877 21.8793 27.2744 15.9993 27.2744ZM14.666 21.9411H17.3327V24.6077H14.666V21.9411ZM16.8127 8.66108C14.066 8.26108 11.6393 9.95441 10.906 12.3811C10.666 13.1544 11.2527 13.9411 12.066 13.9411H12.3327C12.8793 13.9411 13.3193 13.5544 13.506 13.0477C13.9327 11.8611 15.1993 11.0477 16.5727 11.3411C17.8393 11.6077 18.7727 12.8477 18.666 14.1411C18.5327 15.9277 16.506 16.3144 15.3993 17.9811C15.3993 17.9944 15.386 17.9944 15.386 18.0077C15.3727 18.0344 15.3593 18.0477 15.346 18.0744C15.226 18.2744 15.106 18.5011 15.0127 18.7411C14.9993 18.7811 14.9727 18.8077 14.9593 18.8477C14.946 18.8744 14.946 18.9011 14.9327 18.9411C14.7727 19.3944 14.666 19.9411 14.666 20.6077H17.3327C17.3327 20.0477 17.4793 19.5811 17.706 19.1811C17.7327 19.1411 17.746 19.1011 17.7727 19.0611C17.8793 18.8744 18.0127 18.7011 18.146 18.5411C18.1593 18.5277 18.1727 18.5011 18.186 18.4877C18.3193 18.3277 18.466 18.1811 18.626 18.0344C19.906 16.8211 21.6393 15.8344 21.2793 13.2877C20.9593 10.9677 19.1327 9.00775 16.8127 8.66108V8.66108Z" fill="#828CA0"/>
</svg>
