<svg width="24" height="24" viewBox="0 0 24 24" fill="none" xmlns="http://www.w3.org/2000/svg">
<path d="M11.9336 7.06836C8.97065 7.06836 6.51562 9.48107 6.51562 12.4863C6.51562 15.4916 8.92832 17.9043 11.9336 17.9043C14.9389 17.9043 17.3516 15.4494 17.3516 12.4863C17.3516 9.52339 14.8966 7.06836 11.9336 7.06836ZM11.9336 15.9572C10.0289 15.9572 8.46271 14.3911 8.46271 12.4863C8.46271 10.5816 10.0289 9.01545 11.9336 9.01545C13.8384 9.01545 15.4045 10.5816 15.4045 12.4863C15.4045 14.3911 13.8384 15.9572 11.9336 15.9572Z" fill="white"/>
<path d="M17.5659 8.1689C18.2439 8.1689 18.7935 7.61932 18.7935 6.94138C18.7935 6.26344 18.2439 5.71387 17.5659 5.71387C16.888 5.71387 16.3384 6.26344 16.3384 6.94138C16.3384 7.61932 16.888 8.1689 17.5659 8.1689Z" fill="white"/>
<path d="M20.7362 3.76474C19.6357 2.62188 18.0694 2.0293 16.2918 2.0293H7.57214C3.8896 2.0293 1.43457 4.48432 1.43457 8.16685V16.8441C1.43457 18.6642 2.02717 20.2304 3.21235 21.3732C4.35521 22.4737 5.87902 23.024 7.61447 23.024H16.2494C18.0694 23.024 19.5933 22.4314 20.6938 21.3732C21.8367 20.2726 22.4293 18.7065 22.4293 16.8865V8.16685C22.4293 6.38908 21.8367 4.86527 20.7362 3.76474ZM20.4822 16.8865C20.4822 18.1986 20.1013 19.2568 19.3393 19.9764C18.5774 20.696 17.5192 21.0769 16.2494 21.0769H7.61447C6.34462 21.0769 5.28643 20.696 4.52452 19.9764C3.76262 19.2145 3.38167 18.1563 3.38167 16.8441V8.16685C3.38167 6.89701 3.76262 5.83882 4.52452 5.07691C5.2441 4.35733 6.34462 3.97638 7.61447 3.97638H16.334C17.6038 3.97638 18.6621 4.35733 19.424 5.11924C20.1435 5.88114 20.5669 6.93935 20.5669 8.16685V16.8865H20.4822Z" fill="white"/>
</svg>
