<svg width="24" height="24" viewBox="0 0 24 24" fill="none" xmlns="http://www.w3.org/2000/svg">
<path d="M2.95312 11.5803V20.7123H7.29713V10.8483V8.28027H2.95312V11.5803Z" fill="white"/>
<path d="M5.12513 2.06396C4.69554 2.06396 4.27561 2.19135 3.91843 2.43001C3.56124 2.66868 3.28285 3.0079 3.11846 3.40478C2.95407 3.80166 2.91105 4.23837 2.99486 4.6597C3.07867 5.08103 3.28553 5.46804 3.58929 5.7718C3.89305 6.07556 4.28006 6.28242 4.70139 6.36623C5.12272 6.45004 5.55943 6.40702 5.95631 6.24263C6.3532 6.07824 6.69242 5.79985 6.93108 5.44266C7.16974 5.08548 7.29713 4.66555 7.29713 4.23596C7.29713 3.95073 7.24095 3.6683 7.13179 3.40478C7.02264 3.14126 6.86265 2.90182 6.66096 2.70013C6.45927 2.49844 6.21983 2.33845 5.95631 2.2293C5.6928 2.12015 5.41036 2.06396 5.12513 2.06396Z" fill="white"/>
<path d="M21.5038 12.0957C21.2158 9.75566 20.1358 8.27966 16.9678 8.27966C16.2625 8.19886 15.5485 8.31271 14.9033 8.60887C14.2581 8.90502 13.7063 9.37217 13.3078 9.95966V8.27966H9.77979V20.7117H13.3798V14.5437C13.3798 12.9237 13.6798 11.3517 15.6958 11.3517C17.7118 11.3517 17.8318 13.2117 17.8318 14.6517V20.7117H21.5998V13.8837C21.6064 13.2862 21.5743 12.689 21.5038 12.0957Z" fill="white"/>
</svg>
