<svg width="948" height="128" viewBox="0 0 948 128" fill="none" xmlns="http://www.w3.org/2000/svg">
<path fill-rule="evenodd" clip-rule="evenodd" d="M73.8649 64.2638C73.8649 84.326 57.6019 100.59 37.5405 100.59C17.4792 100.59 1.21623 84.326 1.21623 64.2638C1.21624 44.2016 17.4792 27.938 37.5406 27.938C57.6019 27.938 73.8649 44.2017 73.8649 64.2638ZM60.4595 64.2638C60.4595 76.9221 50.1983 87.1837 37.5406 87.1837C24.8828 87.1837 14.6216 76.9221 14.6216 64.2638C14.6216 51.6055 24.8828 41.344 37.5406 41.344C50.1983 41.344 60.4595 51.6056 60.4595 64.2638Z" fill="white"/>
<path d="M122.609 41.3271C121.669 40.2422 120.659 39.2107 119.581 38.24C112.825 32.1527 103.967 28.9315 94.8788 29.2577C85.7909 29.5839 77.1861 33.4318 70.8839 39.9878C64.5816 46.5438 61.076 55.294 61.1083 64.3881C61.1407 73.4821 64.7084 82.2072 71.057 88.7182C77.4057 95.2293 86.0377 99.016 95.1277 99.2776C104.218 99.5391 113.053 96.2551 119.766 90.1199C120.774 89.1981 121.723 88.2228 122.609 87.2002L112.442 78.4627C111.905 79.0792 111.331 79.6675 110.722 80.2243C106.578 84.0114 101.124 86.0386 95.5132 85.8771C89.9021 85.7157 84.5738 83.3782 80.6548 79.3591C76.7359 75.3399 74.5336 69.9541 74.5137 64.3404C74.4937 58.7268 76.6577 53.3255 80.5479 49.2785C84.4382 45.2316 89.7498 42.8563 95.3596 42.655C100.969 42.4537 106.438 44.442 110.608 48.1997C111.26 48.7867 111.871 49.4097 112.442 50.0645L122.609 41.3271Z" fill="white"/>
<path d="M130.946 71.6155L130.946 14.0997L144.351 14.0997L144.351 30.5328L164.459 30.5328L164.459 43.0738L144.351 43.0738L144.351 72.4804C144.351 80.0037 150.45 86.1026 157.973 86.1026L164.459 86.1026L164.459 98.6436L157.973 98.6436C143.046 98.6436 130.946 86.5427 130.946 71.6155Z" fill="white"/>
<path fill-rule="evenodd" clip-rule="evenodd" d="M228.027 89.9336C222.583 95.7311 214.996 99.2802 205.855 99.2924C186.532 99.2668 170.875 83.5938 170.875 64.264C170.875 44.9341 186.532 29.2611 205.855 29.2355C214.996 29.2477 222.583 32.7968 228.027 38.5943L228.027 30.5329L241 30.5329L241 97.9951L228.027 97.9951L228.027 89.9336ZM205.902 85.8865C217.843 85.8865 227.524 76.2058 227.524 64.264C227.524 52.3222 217.843 42.6415 205.902 42.6415C193.961 42.6415 184.28 52.3222 184.28 64.264C184.28 76.2057 193.961 85.8865 205.902 85.8865Z" fill="white"/>
<path fill-rule="evenodd" clip-rule="evenodd" d="M441.974 38.5959C447.418 32.7983 455.006 29.2491 464.147 29.237C483.471 29.2626 499.129 44.9357 499.129 64.2659C499.129 83.5961 483.471 99.2692 464.147 99.2948C455.006 99.2826 447.418 95.7335 441.974 89.9359L441.974 113.281L429 113.281L429 30.5343L441.974 30.5343L441.974 38.5959ZM464.1 42.6431C452.158 42.6431 442.477 52.3239 442.477 64.2659C442.477 76.2078 452.158 85.8887 464.1 85.8887C476.042 85.8887 485.723 76.2078 485.723 64.2659C485.723 52.324 476.042 42.6431 464.1 42.6431Z" fill="white"/>
<path fill-rule="evenodd" clip-rule="evenodd" d="M565.72 89.9357C560.275 95.7333 552.688 99.2825 543.546 99.2946C524.222 99.269 508.564 83.5959 508.564 64.2657C508.564 44.9356 524.222 29.2624 543.546 29.2368C552.688 29.249 560.275 32.7982 565.72 38.5957L565.72 30.5342L578.693 30.5342L578.693 97.9973L565.72 97.9973L565.72 89.9357ZM543.593 85.8885C555.535 85.8885 565.216 76.2077 565.216 64.2657C565.216 52.3238 555.535 42.6429 543.593 42.6429C531.651 42.6429 521.971 52.3238 521.971 64.2657C521.971 76.2077 531.651 85.8885 543.593 85.8885Z" fill="white"/>
<path d="M608.67 38.7708C615.798 30.0168 624.768 28.6118 635.914 28.6118L635.914 42.6074C634.883 42.4927 633.847 42.4426 632.81 42.4572C625.467 42.4572 619.677 44.67 615.438 49.0955C611.293 53.4342 609.22 59.6453 609.22 67.7287L609.22 97.9966L595.684 97.9966L595.684 30.5323L608.7 30.5323L608.67 38.7708Z" fill="white"/>
<path d="M861.168 38.7713C868.296 30.0173 877.266 28.6123 888.412 28.6123L888.412 42.6079C887.381 42.4932 886.345 42.4431 885.308 42.4577C877.966 42.4577 872.175 44.6705 867.936 49.096C863.791 53.4348 861.719 59.6458 861.719 67.7293L861.719 97.9971L848.182 97.9971L848.182 30.5328L861.198 30.5328L861.168 38.7713Z" fill="white"/>
<path fill-rule="evenodd" clip-rule="evenodd" d="M730.881 29.2308C734.712 29.1271 738.506 30.0168 741.892 31.8132C753.263 38.5418 753.263 51.1828 753.262 60.1205L753.262 97.997L739.729 97.997L739.729 57.0075C739.729 48.8054 735.373 41.8529 726.577 41.8529C724.494 41.7771 722.42 42.155 720.498 42.9604C718.576 43.7658 716.852 44.9795 715.446 46.5174C712.703 49.6104 711.132 54.1848 711.132 60.1305L711.132 97.997L697.589 97.997L697.589 30.532L711.132 30.532L711.132 38.5418C714.746 33.0316 722.268 29.2308 730.881 29.2308Z" fill="white"/>
<path fill-rule="evenodd" clip-rule="evenodd" d="M829.474 57.7453L771.041 57.7452L771.041 70.7304L829.474 70.7305L829.474 57.7453Z" fill="white"/>
<mask id="mask0_43_1939" style="mask-type:alpha" maskUnits="userSpaceOnUse" x="766" y="29" width="69" height="71">
<path d="M834.451 64.2964C834.451 94.0477 820.337 99.3565 801.065 99.3565C781.793 99.3565 766.062 83.6595 766.062 64.2964C766.062 44.9333 781.793 29.2364 801.065 29.2364C820.337 29.2364 834.451 44.9333 834.451 64.2964Z" fill="white"/>
</mask>
<g mask="url(#mask0_43_1939)">
<path fill-rule="evenodd" clip-rule="evenodd" d="M817.207 78.7591C813.247 83.1324 807.524 85.8796 801.16 85.8796C789.207 85.8796 779.518 76.1901 779.518 64.2375C779.518 52.285 789.207 42.5955 801.16 42.5955C813.112 42.5955 822.802 52.285 822.802 64.2376C822.802 66.4998 822.455 68.6809 821.811 70.7306L835.62 70.7306C836.014 68.6265 836.22 66.4561 836.22 64.2376C836.22 44.8744 820.523 29.1775 801.16 29.1775C781.797 29.1775 766.1 44.8744 766.1 64.2375C766.1 83.6007 781.797 99.2976 801.16 99.2976C812.814 99.2976 823.14 93.6112 829.515 84.8616L817.207 78.7591Z" fill="white"/>
</g>
<path d="M647.974 71.6161L647.974 14.0986L661.38 14.0986L661.38 30.5322L681.489 30.5322L681.489 43.0736L661.38 43.0736L661.38 72.4811C661.38 80.0046 667.479 86.1036 675.003 86.1036L681.489 86.1036L681.489 98.645L675.002 98.645C660.075 98.645 647.974 86.5438 647.974 71.6161Z" fill="white"/>
<path fill-rule="evenodd" clip-rule="evenodd" d="M902.799 34.804C907.422 31.0956 913.261 29.2364 920.196 29.2364C931.06 29.2364 939.823 34.2613 944.516 42.5926L933.13 48.9844C932.07 46.7077 930.365 44.7926 928.226 43.477C925.782 42.0785 923 41.3829 920.186 41.4671C917.621 41.3718 915.085 42.0285 912.889 43.3564C911.927 43.9778 911.139 44.8349 910.601 45.8462C910.063 46.8576 909.792 47.9897 909.814 49.1351C909.814 51.6174 911.412 53.4465 913.774 54.8635C916.651 56.4142 919.71 57.6024 922.879 58.4011C928.085 59.5468 933.934 61.1849 938.537 64.3004C940.992 65.8537 942.991 68.032 944.328 70.6121C945.665 73.1921 946.292 76.0811 946.144 78.9832C946.248 81.879 945.628 84.755 944.342 87.3516C943.056 89.9483 941.144 92.184 938.778 93.857C933.884 97.4247 927.773 99.294 920.286 99.294C907.221 99.294 897.674 93.5957 893.353 84.2192L905.02 77.4556C906.039 80.3274 907.956 82.7943 910.488 84.4905C913.439 86.2646 916.845 87.1378 920.286 87.003C924.175 87.003 927.17 86.3598 929.2 84.993C930.19 84.3386 930.993 83.4394 931.532 82.3828C932.071 81.3262 932.327 80.1481 932.276 78.9631C932.276 76.5411 930.678 74.6819 928.306 73.2447C925.406 71.6606 922.292 70.5062 919.06 69.8177C914.035 68.5313 908.116 66.8932 903.553 63.7878C898.99 60.6824 895.785 56.3408 895.915 49.4567C895.814 46.6428 896.386 43.8455 897.584 41.297C898.781 38.7486 900.569 36.5226 902.799 34.804Z" fill="white"/>
<circle cx="335" cy="64.0001" r="64" fill="white"/>
<path d="M271 64C271 11.2962 282.296 0 335 0C387.704 0 399 11.2962 399 64C399 116.704 387.704 128 335 128C282.296 128 271 116.704 271 64Z" fill="white"/>
<path d="M315.3 14.002C332.396 14.2117 356.098 42.0046 366.691 61.1974C374.452 53.4363 378.752 46.1997 379.276 40.9558C383.891 41.7948 388.086 44.6265 388.191 49.6607C388.401 56.1632 382.528 65.2876 372.669 74.3072C377.074 86.0536 377.598 95.8073 373.403 100.317C371.515 102.205 368.998 102.834 366.271 102.834C366.586 96.6463 365.118 89.7243 362.391 82.5926C343.513 96.2268 320.335 105.037 306.491 104.407C301.876 104.198 298.31 102.939 296.212 100.422C293.276 97.0658 294.534 93.2902 294.744 92.7658C314.147 95.7024 340.786 82.0682 356.518 70.112C343.303 46.0948 319.915 23.9654 305.756 23.9654C306.176 17.9874 309.322 13.8971 315.3 14.002Z" fill="url(#paint0_radial_43_1939)"/>
<path d="M357.355 115C339.63 115 316.871 89.1999 306.488 72.4193C299.252 79.3413 287.925 93.2901 294.113 101.051C293.169 100.002 284.464 88.9901 284.254 88.5706C280.164 81.5437 286.352 69.9022 298.832 58.2607C294.427 48.4021 292.644 41.3752 292.644 36.0264C292.644 25.3288 299.382 20.4957 305.964 15.1555C300.301 23.3361 306.384 39.6971 310.579 48.7167C327.045 36.8654 350.537 26.7971 366.06 26.7971C371.933 26.7971 376.442 27.9507 380.008 32.4605L387.874 42.3191C374.555 30.8873 335.75 49.6606 318.34 62.4558C328.932 79.1315 358.718 113.532 374.45 101.995C370.674 106.295 363.018 115 357.355 115Z" fill="url(#paint1_radial_43_1939)"/>
<defs>
<radialGradient id="paint0_radial_43_1939" cx="0" cy="0" r="1" gradientUnits="userSpaceOnUse" gradientTransform="translate(362.896 74.324) rotate(138.516) scale(67.8108 70.6774)">
<stop stop-color="#E0F1FD"/>
<stop stop-color="white"/>
<stop offset="0.0001" stop-color="#F3FAFF"/>
<stop offset="0.2476" stop-color="#E7EEFF"/>
<stop offset="0.474006" stop-color="#C4D4FF"/>
<stop offset="0.859375" stop-color="#B8CBFC"/>
<stop offset="1" stop-color="#99AFFF"/>
</radialGradient>
<radialGradient id="paint1_radial_43_1939" cx="0" cy="0" r="1" gradientUnits="userSpaceOnUse" gradientTransform="translate(309.065 48.3935) rotate(68.403) scale(71.6481 75.2241)">
<stop stop-color="#9DE2FF"/>
<stop offset="0.280533" stop-color="#7AB7FB"/>
<stop offset="0.89199" stop-color="#0C34F0"/>
</radialGradient>
</defs>
</svg>
