<svg width="573" height="72" viewBox="0 0 573 72" fill="none" xmlns="http://www.w3.org/2000/svg">
<rect y="54" width="573" height="6" rx="3" fill="#828CA0"/>
<rect y="54" width="311" height="6" rx="3" fill="#FFA217"/>
<path d="M253.224 27V11.52H249.792V9.12H256.032V27H253.224ZM265.574 27.288C264.63 27.288 263.742 27.12 262.91 26.784C262.078 26.432 261.358 25.944 260.75 25.32C260.142 24.696 259.71 23.944 259.454 23.064L261.83 22.152C262.134 23 262.63 23.648 263.318 24.096C264.006 24.544 264.758 24.768 265.574 24.768C266.246 24.768 266.838 24.616 267.35 24.312C267.862 24.008 268.262 23.592 268.55 23.064C268.854 22.536 269.006 21.936 269.006 21.264C269.006 20.576 268.854 19.976 268.55 19.464C268.262 18.936 267.862 18.528 267.35 18.24C266.838 17.936 266.246 17.784 265.574 17.784C264.902 17.784 264.286 17.936 263.726 18.24C263.166 18.544 262.758 18.952 262.502 19.464L260.222 18.96L261.614 9.12H271.142V11.52H262.718L263.798 10.344L262.766 17.88L261.878 17.28C262.358 16.608 262.942 16.12 263.63 15.816C264.318 15.512 265.102 15.36 265.982 15.36C267.15 15.36 268.166 15.624 269.03 16.152C269.91 16.664 270.59 17.368 271.07 18.264C271.566 19.144 271.814 20.144 271.814 21.264C271.814 22.4 271.542 23.424 270.998 24.336C270.454 25.248 269.71 25.968 268.766 26.496C267.838 27.024 266.774 27.288 265.574 27.288ZM281.78 27.288C280.356 27.288 279.108 26.904 278.036 26.136C276.964 25.352 276.124 24.272 275.516 22.896C274.924 21.504 274.628 19.888 274.628 18.048C274.628 16.192 274.924 14.576 275.516 13.2C276.124 11.824 276.956 10.752 278.012 9.984C279.084 9.216 280.332 8.832 281.756 8.832C283.18 8.832 284.42 9.216 285.476 9.984C286.548 10.752 287.38 11.832 287.972 13.224C288.58 14.6 288.884 16.208 288.884 18.048C288.884 19.888 288.588 21.504 287.996 22.896C287.404 24.272 286.572 25.352 285.5 26.136C284.444 26.904 283.204 27.288 281.78 27.288ZM281.78 24.696C282.66 24.696 283.42 24.424 284.06 23.88C284.7 23.336 285.196 22.568 285.548 21.576C285.9 20.584 286.076 19.408 286.076 18.048C286.076 16.688 285.9 15.512 285.548 14.52C285.196 13.528 284.7 12.76 284.06 12.216C283.42 11.672 282.652 11.4 281.756 11.4C280.876 11.4 280.116 11.672 279.476 12.216C278.836 12.76 278.34 13.528 277.988 14.52C277.636 15.512 277.46 16.688 277.46 18.048C277.46 19.392 277.636 20.568 277.988 21.576C278.34 22.568 278.836 23.336 279.476 23.88C280.132 24.424 280.9 24.696 281.78 24.696ZM302.291 27.288C300.995 27.288 299.843 26.992 298.835 26.4C297.843 25.792 297.051 24.976 296.459 23.952C295.883 22.928 295.595 21.768 295.595 20.472C295.595 19.192 295.883 18.04 296.459 17.016C297.035 15.992 297.827 15.192 298.835 14.616C299.843 14.024 300.995 13.728 302.291 13.728C303.171 13.728 303.995 13.888 304.763 14.208C305.531 14.512 306.195 14.936 306.755 15.48C307.331 16.024 307.755 16.656 308.027 17.376L305.651 18.48C305.379 17.808 304.939 17.272 304.331 16.872C303.739 16.456 303.059 16.248 302.291 16.248C301.555 16.248 300.891 16.432 300.299 16.8C299.723 17.152 299.267 17.656 298.931 18.312C298.595 18.952 298.427 19.68 298.427 20.496C298.427 21.312 298.595 22.048 298.931 22.704C299.267 23.344 299.723 23.848 300.299 24.216C300.891 24.584 301.555 24.768 302.291 24.768C303.075 24.768 303.755 24.568 304.331 24.168C304.923 23.752 305.363 23.2 305.651 22.512L308.027 23.64C307.771 24.328 307.355 24.952 306.779 25.512C306.219 26.056 305.555 26.488 304.787 26.808C304.019 27.128 303.187 27.288 302.291 27.288ZM310.678 27V8.832H313.39V27H310.678ZM316.561 27V14.016H319.273V27H316.561ZM316.561 12.24V9.12H319.273V12.24H316.561ZM328.539 27.288C327.243 27.288 326.091 26.992 325.083 26.4C324.091 25.792 323.315 24.976 322.755 23.952C322.195 22.912 321.915 21.752 321.915 20.472C321.915 19.16 322.195 18 322.755 16.992C323.331 15.984 324.099 15.192 325.059 14.616C326.019 14.024 327.107 13.728 328.323 13.728C329.299 13.728 330.171 13.896 330.939 14.232C331.707 14.568 332.355 15.032 332.883 15.624C333.411 16.2 333.811 16.864 334.083 17.616C334.371 18.368 334.515 19.168 334.515 20.016C334.515 20.224 334.507 20.44 334.491 20.664C334.475 20.888 334.443 21.096 334.395 21.288H324.051V19.128H332.859L331.563 20.112C331.723 19.328 331.667 18.632 331.395 18.024C331.139 17.4 330.739 16.912 330.195 16.56C329.667 16.192 329.043 16.008 328.323 16.008C327.603 16.008 326.963 16.192 326.403 16.56C325.843 16.912 325.411 17.424 325.107 18.096C324.803 18.752 324.683 19.552 324.747 20.496C324.667 21.376 324.787 22.144 325.107 22.8C325.443 23.456 325.907 23.968 326.499 24.336C327.107 24.704 327.795 24.888 328.563 24.888C329.347 24.888 330.011 24.712 330.555 24.36C331.115 24.008 331.555 23.552 331.875 22.992L334.083 24.072C333.827 24.68 333.427 25.232 332.883 25.728C332.355 26.208 331.715 26.592 330.963 26.88C330.227 27.152 329.419 27.288 328.539 27.288ZM337.162 27V14.016H339.754V16.56L339.442 16.224C339.762 15.408 340.274 14.792 340.978 14.376C341.682 13.944 342.498 13.728 343.426 13.728C344.386 13.728 345.234 13.936 345.97 14.352C346.706 14.768 347.282 15.344 347.698 16.08C348.114 16.816 348.322 17.664 348.322 18.624V27H345.634V19.344C345.634 18.688 345.514 18.136 345.274 17.688C345.034 17.224 344.69 16.872 344.242 16.632C343.81 16.376 343.314 16.248 342.754 16.248C342.194 16.248 341.69 16.376 341.242 16.632C340.81 16.872 340.474 17.224 340.234 17.688C339.994 18.152 339.874 18.704 339.874 19.344V27H337.162ZM356.841 27.144C355.481 27.144 354.425 26.76 353.673 25.992C352.921 25.224 352.545 24.144 352.545 22.752V16.464H350.265V14.016H350.625C351.233 14.016 351.705 13.84 352.041 13.488C352.377 13.136 352.545 12.656 352.545 12.048V11.04H355.257V14.016H358.209V16.464H355.257V22.632C355.257 23.08 355.329 23.464 355.473 23.784C355.617 24.088 355.849 24.328 356.169 24.504C356.489 24.664 356.905 24.744 357.417 24.744C357.545 24.744 357.689 24.736 357.849 24.72C358.009 24.704 358.161 24.688 358.305 24.672V27C358.081 27.032 357.833 27.064 357.561 27.096C357.289 27.128 357.049 27.144 356.841 27.144ZM365.751 27.288C364.423 27.288 363.255 26.96 362.247 26.304C361.255 25.648 360.559 24.768 360.159 23.664L362.247 22.68C362.599 23.416 363.079 24 363.687 24.432C364.311 24.864 364.999 25.08 365.751 25.08C366.391 25.08 366.911 24.936 367.311 24.648C367.711 24.36 367.911 23.968 367.911 23.472C367.911 23.152 367.823 22.896 367.647 22.704C367.471 22.496 367.247 22.328 366.975 22.2C366.719 22.072 366.455 21.976 366.183 21.912L364.143 21.336C363.023 21.016 362.183 20.536 361.623 19.896C361.079 19.24 360.807 18.48 360.807 17.616C360.807 16.832 361.007 16.152 361.407 15.576C361.807 14.984 362.359 14.528 363.063 14.208C363.767 13.888 364.559 13.728 365.439 13.728C366.623 13.728 367.679 14.024 368.607 14.616C369.535 15.192 370.191 16 370.575 17.04L368.487 18.024C368.231 17.4 367.823 16.904 367.263 16.536C366.719 16.168 366.103 15.984 365.415 15.984C364.823 15.984 364.351 16.128 363.999 16.416C363.647 16.688 363.471 17.048 363.471 17.496C363.471 17.8 363.551 18.056 363.711 18.264C363.871 18.456 364.079 18.616 364.335 18.744C364.591 18.856 364.855 18.952 365.127 19.032L367.239 19.656C368.311 19.96 369.135 20.44 369.711 21.096C370.287 21.736 370.575 22.504 370.575 23.4C370.575 24.168 370.367 24.848 369.951 25.44C369.551 26.016 368.991 26.472 368.271 26.808C367.551 27.128 366.711 27.288 365.751 27.288Z" fill="#FFA217"/>
<circle cx="311" cy="58" r="14" fill="#FFA217"/>
</svg>
