<svg width="25" height="24" viewBox="0 0 25 24" fill="none" xmlns="http://www.w3.org/2000/svg">
<path d="M10.0168 16.4043L9.86084 20.4123L11.9248 17.8803L10.0168 16.4043Z" fill="white"/>
<path d="M21.2951 4.04343C17.9831 5.37543 7.31511 9.81543 3.29511 11.5074C3.15651 11.5353 3.03182 11.6103 2.94224 11.7197C2.85266 11.829 2.80371 11.9661 2.80371 12.1074C2.80371 12.2488 2.85266 12.3858 2.94224 12.4952C3.03182 12.6046 3.15651 12.6796 3.29511 12.7074L7.92711 14.1594L18.3071 7.85943C18.3791 7.85943 18.4391 7.85943 18.3911 7.95543L10.4831 15.4554L17.6831 20.7234C17.8151 20.8164 17.9681 20.875 18.1285 20.894C18.2888 20.913 18.4513 20.8918 18.6013 20.8322C18.7514 20.7727 18.8842 20.6767 18.9879 20.553C19.0916 20.4292 19.1628 20.2816 19.1951 20.1234C19.8551 16.5834 21.5231 7.71543 22.0991 4.69143C22.1225 4.5866 22.116 4.47733 22.0805 4.37596C22.0451 4.27459 21.982 4.18516 21.8983 4.11776C21.8147 4.05037 21.7139 4.00769 21.6073 3.99456C21.5007 3.98142 21.3926 3.99835 21.2951 4.04343Z" fill="white"/>
</svg>
