<svg width="24" height="24" viewBox="0 0 24 24" fill="none" xmlns="http://www.w3.org/2000/svg">
<g clip-path="url(#clip0_33_314)">
<path d="M20.0742 7.48431C19.4235 7.77281 18.7332 7.96189 18.0263 8.04523C18.771 7.5999 19.3282 6.89884 19.594 6.07285C18.8942 6.48841 18.1285 6.78121 17.3299 6.93857C16.9964 6.58262 16.5933 6.299 16.1456 6.10529C15.698 5.91159 15.2153 5.81193 14.7275 5.8125C12.7586 5.8125 11.162 7.40882 11.162 9.37802C11.162 9.65742 11.1937 9.92941 11.2544 10.1901C8.29106 10.042 5.66358 8.62237 3.90534 6.46479C3.58808 7.00893 3.42139 7.62772 3.42239 8.2576C3.42239 9.49444 4.05209 10.5859 5.00883 11.2252C4.44263 11.2074 3.8889 11.0545 3.39381 10.7793L3.39346 10.8244C3.39346 12.5516 4.62253 13.9923 6.25378 14.3204C5.72859 14.463 5.17781 14.4838 4.64335 14.3815C5.09737 15.7979 6.41394 16.8287 7.97356 16.8576C6.71072 17.8487 5.15119 18.3863 3.54586 18.3837C3.25799 18.3837 2.97436 18.3668 2.69531 18.3343C4.32561 19.3819 6.22304 19.9379 8.16089 19.9359C14.719 19.9359 18.3054 14.5032 18.3054 9.79112C18.3054 9.63696 18.3022 9.4828 18.2955 9.33004C18.9935 8.82552 19.5958 8.20048 20.0742 7.48431Z" fill="white"/>
</g>
<defs>
<clipPath id="clip0_33_314">
<rect width="19" height="15" fill="white" transform="translate(2 5)"/>
</clipPath>
</defs>
</svg>
