<svg width="24" height="24" viewBox="0 0 24 24" fill="none" xmlns="http://www.w3.org/2000/svg">
<path d="M20.8201 8.07977C20.7383 7.41432 20.4945 6.7791 20.1101 6.22977C19.8788 5.98629 19.6015 5.7911 19.2942 5.65549C18.987 5.51989 18.6559 5.44657 18.3201 5.43977C15.8101 5.25977 12.0601 5.25977 12.0601 5.25977C12.0601 5.25977 8.31011 5.25977 5.80011 5.43977C5.46264 5.44525 5.12964 5.51794 4.82059 5.65358C4.51153 5.78922 4.2326 5.9851 4.00011 6.22977C3.61495 6.7824 3.37116 7.42105 3.29011 8.08977C3.17815 9.08597 3.11807 10.0873 3.11011 11.0898V12.5098C3.11864 13.5122 3.17872 14.5135 3.29011 15.5098C3.36715 16.1856 3.61115 16.8317 4.00011 17.3898C4.54255 17.8971 5.25741 18.1794 6.00011 18.1798C7.43011 18.3298 12.0901 18.3698 12.0901 18.3698C12.0901 18.3698 15.8401 18.3698 18.3501 18.1798C18.6864 18.1758 19.0183 18.1037 19.326 17.9679C19.6336 17.8322 19.9105 17.6355 20.1401 17.3898C20.5245 16.8404 20.7683 16.2052 20.8501 15.5398C20.9615 14.5435 21.0216 13.5422 21.0301 12.5398V11.0998C21.0123 10.0901 20.9422 9.08213 20.8201 8.07977ZM15.0001 11.6198L10.2101 14.2298V8.99977L12.3901 10.1898L15.0001 11.6198Z" fill="white"/>
</svg>
